<?xml version="1.0" standalone="yes"?>
<svg xmlns="http://www.w3.org/2000/svg" width="123" height="42">
<path style="fill:#e44d3c; stroke:none;" d="M0 0C0.123076 10.3269 10.7132 8.26455 18 13.1049C27.9685 19.7267 33.9001 30.0915 34 42L42 42C42 17.2383 24.6941 0 0 0z"/>
<path style="fill:#111111; stroke:none;" d="M12 0L12 1C30.5444 6.34227 41.9979 23.3178 42 42L123 42L123 0L41 0L42 16C33.3084 3.91124 26.605 0 12 0z"/>
<path style="fill:#e44d3c; stroke:none;" d="M26 0L26 1L41 16C46.9535 1.81202 37.2546 0 26 0M55 4L55 30L61 30L61 4L55 4z"/>
<path style="fill:#111111; stroke:none;" d="M0 7L0 14C15.4925 14.33 27.67 26.5075 28 42L34 42C33.9418 20.9201 19.025 10.5845 0 7z"/>
<path style="fill:#e44d3c; stroke:none;" d="M68.1049 13.858C57.1879 18.7632 66.4999 33.6641 76.8951 29.2577C87.7914 24.6389 78.7432 9.07808 68.1049 13.858M95 30C92.4212 32.0975 86.6711 30.5808 85.1759 33.3032C82.232 38.6636 97.0867 38.6185 99.821 33.8665C102.844 28.6122 101 18.9035 101 13C96.7882 13.0959 89.8272 11.7895 86.3943 14.6034C77.4362 21.946 87.1778 29.9292 95 30M109.044 13.7423C98.3234 18.0918 106.473 33.4276 116.981 29.3966C127.803 25.2449 119.758 9.3954 109.044 13.7423M0 14L0 22C10.9971 24.3002 17.6998 31.0029 20 42L28 42C27.8641 25.7999 16.2001 14.1359 0 14z"/>
<path style="fill:#111111; stroke:none;" d="M71.2932 19.0856C68.4914 20.8547 70.6114 25.3683 73.686 23.8248C76.8867 22.2181 74.5383 17.0367 71.2932 19.0856M91.3179 19.1752C88.318 20.708 90.6882 25.3546 93.6821 23.8248C96.6821 22.292 94.3118 17.6454 91.3179 19.1752M111.593 19.0856C108.766 21.0622 111.528 25.8896 114.657 23.9144C117.778 21.9448 114.54 17.0245 111.593 19.0856M0 22L0 42L20 42C18.4566 30.5941 11.4059 23.5434 0 22M95 29L96 30L95 29z"/>
</svg>
